<svg xmlns="http://www.w3.org/2000/svg" xml:space="preserve" stroke="black" stroke-width='9px' viewBox="0 0 512 512"><path d="M235 30a205 205 0 1 0 0 410 205 205 0 0 0 0-410zm0 395a190 190 0 1 1 0-380 190 190 0 0 1 0 380z"/><path d="M370 158a8 8 0 0 0-1-1 157 157 0 0 0-134-77A155 155 0 0 0 80 235c0 27 7 54 20 78 1 0 4 6 12 2l20-12a7 7 0 0 0-7-13l-15 9c-9-18-14-37-15-56h17a7 7 0 1 0 0-15H95c1-21 6-40 15-57l15 9a7 7 0 0 0 10-3c2-3 1-8-3-10l-15-9c11-16 25-30 41-41l9 15a7 7 0 1 0 13-7l-9-15c17-9 36-14 56-15v17a7 7 0 1 0 15 0V95c21 1 40 6 57 15l-9 15a7 7 0 0 0 13 7l9-15c16 11 30 25 41 41l-15 9a7 7 0 0 0 7 13l15-9c9 17 14 36 15 57h-17a7 7 0 1 0 0 15h17c-1 19-6 38-15 56l-15-9a7 7 0 1 0-7 13l21 12a7 7 0 0 0 11-2 156 156 0 0 0 0-155z"/><path d="M261 189c-4-2-9-1-11 3l-11 21a23 23 0 0 0-26 26l-62 36a7 7 0 0 0 7 13l62-36a22 22 0 0 0 36-9h24c4 0 7-3 7-7a52 52 0 0 0-26-47zm-26 54a8 8 0 1 1 4-15c2 2 4 4 4 7h-1c0 4-3 8-7 8zm21-15-4-8 7-13a37 37 0 0 1 13 21h-16zM261 376h-52a7 7 0 1 0 0 15h52a7 7 0 1 0 0-15zM251 361a7 7 0 1 0 0-15h-32a7 7 0 1 0 0 15h32z"/></svg>
